<svg width="206.217" height="206.217" xmlns="http://www.w3.org/2000/svg">

 <g>
  <title>background</title>
  <rect fill="none" id="canvas_background" height="402" width="582" y="-1" x="-1"/>
 </g>
 <g>
  <title>Layer 1</title>
  <g id="svg_1">
   <g id="svg_2">
    <path id="svg_3" fill="#000000" d="m100.41,44.373c-35.76,0 -64.853,29.094 -64.853,64.853c0,35.76 29.094,64.853 64.853,64.853s64.853,-29.094 64.853,-64.853c0.001,-35.759 -29.093,-64.853 -64.853,-64.853zm0,122.88c-31.997,0 -58.027,-26.03 -58.027,-58.027c0,-31.997 26.03,-58.027 58.027,-58.027s58.027,26.03 58.027,58.027s-26.03,58.027 -58.027,58.027z"/>
   </g>
  </g>
  <g id="svg_4">
   <g id="svg_5">
    <path id="svg_6" fill="#000000" d="m193.275,16.362c-15.944,-15.945 -63.362,18.621 -77.513,29.597c-1.49,1.155 -1.761,3.299 -0.604,4.789c0.671,0.867 1.679,1.321 2.698,1.321c0.732,0 1.469,-0.234 2.089,-0.715c38.183,-29.611 62.28,-36.393 68.504,-30.165c2.589,2.587 2.806,8.19 0.614,15.778c-0.526,1.811 0.519,3.703 2.33,4.227c1.813,0.524 3.703,-0.521 4.227,-2.331c3.001,-10.377 2.212,-17.948 -2.345,-22.501z"/>
   </g>
  </g>
  <g id="svg_7">
   <g id="svg_8">
    <path id="svg_9" fill="#000000" d="m181.216,62.304c-1.611,-0.976 -3.712,-0.463 -4.688,1.15c-12.522,20.656 -31.925,44.539 -54.637,67.251c-23.958,23.958 -48.911,43.998 -70.262,56.426c-23.019,13.397 -35.376,14.019 -39.258,10.134c-6.241,-6.241 0.577,-30.392 30.297,-68.671c1.154,-1.488 0.884,-3.633 -0.604,-4.789c-1.49,-1.154 -3.632,-0.888 -4.791,0.602c-11.013,14.186 -45.706,61.711 -29.73,77.686c2.918,2.918 6.897,4.123 11.481,4.123c10.677,-0.002 24.625,-6.54 36.043,-13.187c21.842,-12.715 47.292,-33.135 71.653,-57.498c23.088,-23.088 42.849,-47.428 55.646,-68.54c0.976,-1.61 0.461,-3.71 -1.15,-4.687z"/>
   </g>
  </g>
  <g id="svg_10">
   <g id="svg_11">
    <path id="svg_12" fill="#000000" d="m185.744,34.133c-9.411,0 -17.067,7.656 -17.067,17.067c0,9.411 7.656,17.067 17.067,17.067c9.411,0 17.067,-7.656 17.067,-17.067c-0.001,-9.411 -7.657,-17.067 -17.067,-17.067zm0,27.307c-5.647,0 -10.24,-4.593 -10.24,-10.24s4.593,-10.24 10.24,-10.24c5.646,0 10.24,4.593 10.24,10.24s-4.593,10.24 -10.24,10.24z"/>
   </g>
  </g>
  <g id="svg_13">
   <g id="svg_14">
    <path id="svg_15" fill="#000000" d="m25.317,6.827c-11.293,0 -20.48,9.187 -20.48,20.48c0,11.293 9.187,20.48 20.48,20.48s20.48,-9.187 20.48,-20.48c0,-11.293 -9.187,-20.48 -20.48,-20.48zm0,34.133c-7.528,0 -13.653,-6.125 -13.653,-13.653c0,-7.528 6.125,-13.653 13.653,-13.653c7.528,0 13.653,6.125 13.653,13.653c0,7.528 -6.125,13.653 -13.653,13.653z"/>
   </g>
  </g>
  <g id="svg_16">
   <g id="svg_17">
    <path id="svg_18" fill="#000000" d="m79.93,0c-1.884,0 -3.413,1.529 -3.413,3.413l0,13.653c0,1.884 1.529,3.413 3.413,3.413s3.413,-1.529 3.413,-3.413l0,-13.653c0.001,-1.884 -1.528,-3.413 -3.413,-3.413z"/>
   </g>
  </g>
  <g id="svg_19">
   <g id="svg_20">
    <path id="svg_21" fill="#000000" d="m86.757,6.827l-13.653,0c-1.884,0 -3.413,1.529 -3.413,3.413s1.529,3.413 3.413,3.413l13.653,0c1.884,0 3.413,-1.529 3.413,-3.413s-1.529,-3.413 -3.413,-3.413z"/>
   </g>
  </g>
  <g id="svg_22">
   <g id="svg_23">
    <path id="svg_24" fill="#000000" d="m15.077,71.68c-1.884,0 -3.413,1.529 -3.413,3.413l0,13.653c0,1.884 1.529,3.413 3.413,3.413s3.413,-1.529 3.413,-3.413l0,-13.653c0,-1.884 -1.529,-3.413 -3.413,-3.413z"/>
   </g>
  </g>
  <g id="svg_25">
   <g id="svg_26">
    <path id="svg_27" fill="#000000" d="m21.904,78.507l-13.654,0c-1.884,0 -3.413,1.529 -3.413,3.413s1.529,3.413 3.413,3.413l13.653,0c1.884,0 3.413,-1.529 3.413,-3.413s-1.528,-3.413 -3.412,-3.413z"/>
   </g>
  </g>
  <g id="svg_28">
   <g id="svg_29">
    <path id="svg_30" fill="#000000" d="m182.33,136.533c-1.884,0 -3.413,1.529 -3.413,3.413l0,13.654c0,1.884 1.529,3.413 3.413,3.413c1.884,0 3.413,-1.529 3.413,-3.413l0,-13.653c0.001,-1.884 -1.528,-3.414 -3.413,-3.414z"/>
   </g>
  </g>
  <g id="svg_31">
   <g id="svg_32">
    <path id="svg_33" fill="#000000" d="m189.157,143.36l-13.653,0c-1.884,0 -3.413,1.529 -3.413,3.413s1.529,3.413 3.413,3.413l13.653,0c1.884,0 3.413,-1.529 3.413,-3.413s-1.529,-3.413 -3.413,-3.413z"/>
   </g>
  </g>
  <g id="svg_34">
   <g id="svg_35">
    <path id="svg_36" fill="#000000" d="m86.757,81.92l-40.96,0c-1.884,0 -3.413,1.529 -3.413,3.413s1.529,3.413 3.413,3.413l40.96,0c1.884,0 3.413,-1.529 3.413,-3.413s-1.529,-3.413 -3.413,-3.413z"/>
   </g>
  </g>
  <g id="svg_37">
   <g id="svg_38">
    <path id="svg_39" fill="#000000" d="m76.517,95.573l-34.133,0c-1.884,0 -3.413,1.529 -3.413,3.413s1.529,3.413 3.413,3.413l34.133,0c1.884,0 3.413,-1.529 3.413,-3.413s-1.529,-3.413 -3.413,-3.413z"/>
   </g>
  </g>
  <g id="svg_40">
   <g id="svg_41">
    <path id="svg_42" fill="#000000" d="m66.277,109.227l-23.893,0c-1.884,0 -3.413,1.529 -3.413,3.413s1.529,3.413 3.413,3.413l23.893,0c1.884,0 3.413,-1.529 3.413,-3.413s-1.529,-3.413 -3.413,-3.413z"/>
   </g>
  </g>
  <g id="svg_43"/>
  <g id="svg_44"/>
  <g id="svg_45"/>
  <g id="svg_46"/>
  <g id="svg_47"/>
  <g id="svg_48"/>
  <g id="svg_49"/>
  <g id="svg_50"/>
  <g id="svg_51"/>
  <g id="svg_52"/>
  <g id="svg_53"/>
  <g id="svg_54"/>
  <g id="svg_55"/>
  <g id="svg_56"/>
  <g id="svg_57"/>
 </g>
</svg>